<svg xmlns="http://www.w3.org/2000/svg" xmlns:xlink="http://www.w3.org/1999/xlink" width="500" zoomAndPan="magnify" viewBox="0 0 375 374.999991" height="500" preserveAspectRatio="xMidYMid meet" version="1.0"><defs><clipPath id="d765081f76"><path d="M 37.5 162 L 91 162 L 91 213 L 37.5 213 Z M 37.5 162 " clip-rule="nonzero"/></clipPath><clipPath id="2022434f29"><path d="M 99 162 L 153 162 L 153 213 L 99 213 Z M 99 162 " clip-rule="nonzero"/></clipPath><clipPath id="9d0ccf16cf"><path d="M 161 162 L 214 162 L 214 213 L 161 213 Z M 161 162 " clip-rule="nonzero"/></clipPath><clipPath id="bd60aa88a6"><path d="M 222 162 L 276 162 L 276 213 L 222 213 Z M 222 162 " clip-rule="nonzero"/></clipPath><clipPath id="49e4293b5b"><path d="M 284 162 L 337.5 162 L 337.5 213 L 284 213 Z M 284 162 " clip-rule="nonzero"/></clipPath></defs><g clip-path="url(#d765081f76)"><path fill="#ffb901" d="M 63.964844 161.996094 L 70.238281 181.433594 L 90.429688 181.433594 L 74.0625 193.488281 L 80.335938 212.996094 L 63.964844 200.941406 L 47.59375 212.996094 L 53.867188 193.488281 L 37.5 181.433594 L 57.691406 181.433594 Z M 63.964844 161.996094 " fill-opacity="1" fill-rule="nonzero"/></g><g clip-path="url(#2022434f29)"><path fill="#dcdcdc" d="M 125.765625 161.996094 L 131.96875 181.433594 L 152.234375 181.433594 L 135.863281 193.488281 L 142.136719 212.996094 L 125.765625 200.941406 L 109.398438 212.996094 L 115.597656 193.488281 L 99.230469 181.433594 L 119.492188 181.433594 Z M 125.765625 161.996094 " fill-opacity="1" fill-rule="nonzero"/></g><g clip-path="url(#9d0ccf16cf)"><path fill="#dcdcdc" d="M 187.5 161.996094 L 193.773438 181.433594 L 213.964844 181.433594 L 197.59375 193.488281 L 203.867188 212.996094 L 187.5 200.941406 L 171.128906 212.996094 L 177.402344 193.488281 L 161.03125 181.433594 L 181.222656 181.433594 Z M 187.5 161.996094 " fill-opacity="1" fill-rule="nonzero"/></g><g clip-path="url(#bd60aa88a6)"><path fill="#dcdcdc" d="M 249.300781 161.996094 L 255.503906 181.433594 L 275.765625 181.433594 L 259.398438 193.488281 L 265.671875 212.996094 L 249.300781 200.941406 L 232.929688 212.996094 L 239.132812 193.488281 L 222.761719 181.433594 L 243.027344 181.433594 Z M 249.300781 161.996094 " fill-opacity="1" fill-rule="nonzero"/></g><g clip-path="url(#49e4293b5b)"><path fill="#dcdcdc" d="M 311.03125 161.996094 L 317.304688 181.433594 L 337.5 181.433594 L 321.128906 193.488281 L 327.402344 212.996094 L 311.03125 200.941406 L 294.660156 212.996094 L 300.9375 193.488281 L 284.566406 181.433594 L 304.757812 181.433594 Z M 311.03125 161.996094 " fill-opacity="1" fill-rule="nonzero"/></g></svg>