<svg xmlns="http://www.w3.org/2000/svg" xmlns:xlink="http://www.w3.org/1999/xlink" width="500" zoomAndPan="magnify" viewBox="0 0 375 374.999991" height="500" preserveAspectRatio="xMidYMid meet" version="1.0"><defs><clipPath id="1c5fa8aff7"><path d="M 37.5 162 L 91 162 L 91 213 L 37.5 213 Z M 37.5 162 " clip-rule="nonzero"/></clipPath><clipPath id="a207c20a23"><path d="M 284 162 L 337.5 162 L 337.5 213 L 284 213 Z M 284 162 " clip-rule="nonzero"/></clipPath></defs><g clip-path="url(#1c5fa8aff7)"><path fill="#ffb901" d="M 63.96875 162 L 70.242188 181.480469 L 90.433594 181.480469 L 74.0625 193.519531 L 80.335938 213 L 63.96875 200.964844 L 47.597656 213 L 53.871094 193.519531 L 37.5 181.480469 L 57.691406 181.480469 Z M 63.96875 162 " fill-opacity="1" fill-rule="nonzero"/></g><path fill="#ffb901" d="M 125.769531 162 L 131.972656 181.480469 L 152.238281 181.480469 L 135.867188 193.519531 L 142.140625 213 L 125.769531 200.964844 L 109.398438 213 L 115.601562 193.519531 L 99.230469 181.480469 L 119.496094 181.480469 Z M 125.769531 162 " fill-opacity="1" fill-rule="nonzero"/><path fill="#dcdcdc" d="M 187.5 162 L 193.773438 181.480469 L 213.96875 181.480469 L 197.597656 193.519531 L 203.871094 213 L 187.5 200.964844 L 171.128906 213 L 177.40625 193.519531 L 161.035156 181.480469 L 181.226562 181.480469 Z M 187.5 162 " fill-opacity="1" fill-rule="nonzero"/><path fill="#dcdcdc" d="M 249.304688 162 L 255.503906 181.480469 L 275.769531 181.480469 L 259.398438 193.519531 L 265.675781 213 L 249.304688 200.964844 L 232.933594 213 L 239.132812 193.519531 L 222.765625 181.480469 L 243.03125 181.480469 Z M 249.304688 162 " fill-opacity="1" fill-rule="nonzero"/><g clip-path="url(#a207c20a23)"><path fill="#dcdcdc" d="M 311.035156 162 L 317.308594 181.480469 L 337.5 181.480469 L 321.128906 193.519531 L 327.40625 213 L 311.035156 200.964844 L 294.664062 213 L 300.9375 193.519531 L 284.566406 181.480469 L 304.757812 181.480469 Z M 311.035156 162 " fill-opacity="1" fill-rule="nonzero"/></g></svg>