<svg xmlns="http://www.w3.org/2000/svg" xmlns:xlink="http://www.w3.org/1999/xlink" width="500" zoomAndPan="magnify" viewBox="0 0 375 374.999991" height="500" preserveAspectRatio="xMidYMid meet" version="1.0"><defs><clipPath id="e3ea6775cc"><path d="M 37.5 162 L 91 162 L 91 213 L 37.5 213 Z M 37.5 162 " clip-rule="nonzero"/></clipPath><clipPath id="936966694d"><path d="M 99 162 L 153 162 L 153 213 L 99 213 Z M 99 162 " clip-rule="nonzero"/></clipPath><clipPath id="d138d7c7d6"><path d="M 161 162 L 214 162 L 214 213 L 161 213 Z M 161 162 " clip-rule="nonzero"/></clipPath><clipPath id="e5679d2e78"><path d="M 222 162 L 276 162 L 276 213 L 222 213 Z M 222 162 " clip-rule="nonzero"/></clipPath><clipPath id="5fc8e729ff"><path d="M 284 162 L 337.5 162 L 337.5 213 L 284 213 Z M 284 162 " clip-rule="nonzero"/></clipPath></defs><g clip-path="url(#e3ea6775cc)"><path fill="#ffb901" d="M 63.96875 162.003906 L 70.242188 181.511719 L 90.433594 181.511719 L 74.0625 193.566406 L 80.335938 213.003906 L 63.96875 201.019531 L 47.597656 213.003906 L 53.871094 193.566406 L 37.5 181.511719 L 57.691406 181.511719 Z M 63.96875 162.003906 " fill-opacity="1" fill-rule="nonzero"/></g><g clip-path="url(#936966694d)"><path fill="#ffb901" d="M 125.769531 162.003906 L 131.972656 181.511719 L 152.238281 181.511719 L 135.867188 193.566406 L 142.140625 213.003906 L 125.769531 201.019531 L 109.398438 213.003906 L 115.601562 193.566406 L 99.230469 181.511719 L 119.496094 181.511719 Z M 125.769531 162.003906 " fill-opacity="1" fill-rule="nonzero"/></g><g clip-path="url(#d138d7c7d6)"><path fill="#ffb901" d="M 187.5 162.003906 L 193.773438 181.511719 L 213.96875 181.511719 L 197.597656 193.566406 L 203.871094 213.003906 L 187.5 201.019531 L 171.128906 213.003906 L 177.40625 193.566406 L 161.035156 181.511719 L 181.226562 181.511719 Z M 187.5 162.003906 " fill-opacity="1" fill-rule="nonzero"/></g><g clip-path="url(#e5679d2e78)"><path fill="#dcdcdc" d="M 249.304688 162.003906 L 255.503906 181.511719 L 275.769531 181.511719 L 259.398438 193.566406 L 265.675781 213.003906 L 249.304688 201.019531 L 232.933594 213.003906 L 239.136719 193.566406 L 222.765625 181.511719 L 243.03125 181.511719 Z M 249.304688 162.003906 " fill-opacity="1" fill-rule="nonzero"/></g><g clip-path="url(#5fc8e729ff)"><path fill="#dcdcdc" d="M 311.035156 162.003906 L 317.308594 181.511719 L 337.5 181.511719 L 321.128906 193.566406 L 327.40625 213.003906 L 311.035156 201.019531 L 294.664062 213.003906 L 300.9375 193.566406 L 284.566406 181.511719 L 304.761719 181.511719 Z M 311.035156 162.003906 " fill-opacity="1" fill-rule="nonzero"/></g></svg>