<svg xmlns="http://www.w3.org/2000/svg" xmlns:xlink="http://www.w3.org/1999/xlink" width="500" zoomAndPan="magnify" viewBox="0 0 375 374.999991" height="500" preserveAspectRatio="xMidYMid meet" version="1.0"><defs><clipPath id="1455ed85c1"><path d="M 37.5 162 L 91 162 L 91 213 L 37.5 213 Z M 37.5 162 " clip-rule="nonzero"/></clipPath><clipPath id="0efc781aff"><path d="M 284 162 L 337.5 162 L 337.5 213 L 284 213 Z M 284 162 " clip-rule="nonzero"/></clipPath></defs><g clip-path="url(#1455ed85c1)"><path fill="#ffb901" d="M 63.964844 162 L 70.234375 181.433594 L 90.429688 181.433594 L 74.058594 193.492188 L 80.332031 213 L 63.964844 200.945312 L 47.59375 213 L 53.867188 193.492188 L 37.496094 181.433594 L 57.6875 181.433594 Z M 63.964844 162 " fill-opacity="1" fill-rule="nonzero"/></g><path fill="#ffb901" d="M 125.765625 162 L 131.96875 181.433594 L 152.230469 181.433594 L 135.859375 193.492188 L 142.136719 213 L 125.765625 200.945312 L 109.394531 213 L 115.597656 193.492188 L 99.226562 181.433594 L 119.492188 181.433594 Z M 125.765625 162 " fill-opacity="1" fill-rule="nonzero"/><path fill="#ffb901" d="M 187.496094 162 L 193.769531 181.433594 L 213.964844 181.433594 L 197.59375 193.492188 L 203.867188 213 L 187.496094 200.945312 L 171.125 213 L 177.402344 193.492188 L 161.03125 181.433594 L 181.222656 181.433594 Z M 187.496094 162 " fill-opacity="1" fill-rule="nonzero"/><path fill="#ffb901" d="M 249.300781 162 L 255.5 181.433594 L 275.765625 181.433594 L 259.394531 193.492188 L 265.667969 213 L 249.300781 200.945312 L 232.929688 213 L 239.132812 193.492188 L 222.761719 181.433594 L 243.027344 181.433594 Z M 249.300781 162 " fill-opacity="1" fill-rule="nonzero"/><g clip-path="url(#0efc781aff)"><path fill="#dcdcdc" d="M 311.03125 162 L 317.304688 181.433594 L 337.496094 181.433594 L 321.125 193.492188 L 327.402344 213 L 311.03125 200.945312 L 294.660156 213 L 300.933594 193.492188 L 284.5625 181.433594 L 304.757812 181.433594 Z M 311.03125 162 " fill-opacity="1" fill-rule="nonzero"/></g></svg>