<svg xmlns="http://www.w3.org/2000/svg" xmlns:xlink="http://www.w3.org/1999/xlink" width="500" zoomAndPan="magnify" viewBox="0 0 375 374.999991" height="500" preserveAspectRatio="xMidYMid meet" version="1.0"><defs><clipPath id="f22f391b1f"><path d="M 37.5 160.6875 L 95 160.6875 L 95 214.6875 L 37.5 214.6875 Z M 37.5 160.6875 " clip-rule="nonzero"/></clipPath><clipPath id="761f00f3d2"><path d="M 98 160.6875 L 155 160.6875 L 155 214.6875 L 98 214.6875 Z M 98 160.6875 " clip-rule="nonzero"/></clipPath><clipPath id="67f719e7fa"><path d="M 159 160.6875 L 216 160.6875 L 216 214.6875 L 159 214.6875 Z M 159 160.6875 " clip-rule="nonzero"/></clipPath><clipPath id="6e4b2bdc25"><path d="M 220 160.6875 L 277 160.6875 L 277 214.6875 L 220 214.6875 Z M 220 160.6875 " clip-rule="nonzero"/></clipPath><clipPath id="29f62e7037"><path d="M 280 160.6875 L 337.5 160.6875 L 337.5 214.6875 L 280 214.6875 Z M 280 160.6875 " clip-rule="nonzero"/></clipPath></defs><g clip-path="url(#f22f391b1f)"><path fill="#fbb03b" d="M 66.042969 160.683594 L 72.703125 181.3125 L 94.242188 181.3125 L 76.816406 194.0625 L 83.472656 214.691406 L 66.042969 201.941406 L 48.617188 214.691406 L 55.273438 194.0625 L 37.847656 181.3125 L 59.386719 181.3125 L 66.042969 160.683594 " fill-opacity="1" fill-rule="nonzero"/></g><g clip-path="url(#761f00f3d2)"><path fill="#fbb03b" d="M 126.773438 160.683594 L 133.429688 181.3125 L 154.96875 181.3125 L 137.542969 194.0625 L 144.199219 214.691406 L 126.773438 201.941406 L 109.347656 214.691406 L 116.003906 194.0625 L 98.578125 181.3125 L 120.117188 181.3125 L 126.773438 160.683594 " fill-opacity="1" fill-rule="nonzero"/></g><g clip-path="url(#67f719e7fa)"><path fill="#fbb03b" d="M 187.5 160.683594 L 194.15625 181.3125 L 215.695312 181.3125 L 198.269531 194.0625 L 204.925781 214.691406 L 187.5 201.941406 L 170.074219 214.691406 L 176.730469 194.0625 L 159.304688 181.3125 L 180.84375 181.3125 L 187.5 160.683594 " fill-opacity="1" fill-rule="nonzero"/></g><g clip-path="url(#6e4b2bdc25)"><path fill="#fbb03b" d="M 248.230469 160.683594 L 254.882812 181.3125 L 276.421875 181.3125 L 259 194.0625 L 265.652344 214.691406 L 248.230469 201.941406 L 230.800781 214.691406 L 237.457031 194.0625 L 220.03125 181.3125 L 241.570312 181.3125 L 248.230469 160.683594 " fill-opacity="1" fill-rule="nonzero"/></g><g clip-path="url(#29f62e7037)"><path fill="#fbb03b" d="M 308.953125 160.683594 L 315.613281 181.3125 L 337.152344 181.3125 L 319.722656 194.0625 L 326.382812 214.691406 L 308.953125 201.941406 L 291.527344 214.691406 L 298.183594 194.0625 L 280.761719 181.3125 L 302.300781 181.3125 L 308.953125 160.683594 " fill-opacity="1" fill-rule="nonzero"/></g></svg>